<svg id="Calque_1" data-name="Calque 1" xmlns="http://www.w3.org/2000/svg" viewBox="0 0 400 400"><defs><style>.cls-1{fill:#f2f6fa;}.cls-2{fill:#fff;stroke:#16489e;stroke-width:4px;}.cls-2,.cls-3{stroke-miterlimit:10;}.cls-3,.cls-4{fill:none;stroke:#ffd200;stroke-width:5px;}.cls-4{stroke-linecap:round;stroke-linejoin:round;}</style></defs><circle class="cls-1" cx="200" cy="200" r="160"/><path class="cls-2" d="M199.46,280.14q-46,0-92.05,0c-7.38,0-12.59-3.43-13.53-10a16.53,16.53,0,0,1,2.06-9.79q36.94-64.54,74.25-128.87Q179,116.24,187.76,101c6.08-10.49,17.11-10.57,23.14-.15Q257,180.66,303,260.46c5.67,9.83-.07,19.65-11.52,19.66Q245.48,280.18,199.46,280.14Z"/><rect class="cls-3" x="195" y="131.38" width="10.33" height="93" rx="4.5"/><rect class="cls-3" x="190.5" y="233.88" width="18" height="18" rx="9"/><line class="cls-4" x1="253.5" y1="88.5" x2="253.5" y2="70.93"/><line class="cls-4" x1="279.58" y1="95.58" x2="287.42" y2="79.86"/><line class="cls-4" x1="295.58" y1="114.58" x2="312.5" y2="104.5"/><line class="cls-4" x1="303.58" y1="138.58" x2="322.5" y2="138.5"/></svg>