<?xml version="1.0" encoding="utf-8"?>
<!-- Generator: Adobe Illustrator 26.0.0, SVG Export Plug-In . SVG Version: 6.00 Build 0)  -->
<svg version="1.1" baseProfile="tiny" id="Calque_1"
	 xmlns="http://www.w3.org/2000/svg" xmlns:xlink="http://www.w3.org/1999/xlink" x="0px" y="0px" viewBox="0 0 200 64"
	 overflow="visible" xml:space="preserve">
<g>
	<g>
		<path fill="#164194" d="M8.3,37.1c-1.2-0.6-2.1-1.5-2.7-2.6c-0.7-1.1-1-2.4-1-3.8c0-1.4,0.3-2.6,1-3.8s1.6-2,2.7-2.6
			c1.2-0.6,2.5-1,3.9-1c1.1,0,2.1,0.2,3,0.5c0.9,0.4,1.7,0.9,2.3,1.6l-1,1c-1.1-1.1-2.6-1.7-4.3-1.7c-1.1,0-2.2,0.3-3.1,0.8
			C8.2,26,7.5,26.7,7,27.6c-0.5,0.9-0.8,1.9-0.8,3.1c0,1.1,0.3,2.1,0.8,3.1c0.5,0.9,1.3,1.6,2.2,2.1c0.9,0.5,2,0.8,3.1,0.8
			c1.7,0,3.2-0.6,4.3-1.7l1,1c-0.6,0.7-1.4,1.2-2.3,1.6c-0.9,0.4-1.9,0.5-3,0.5C10.8,38,9.5,37.7,8.3,37.1z"/>
		<path fill="#164194" d="M20.5,24.3c-0.2-0.2-0.3-0.5-0.3-0.7c0-0.3,0.1-0.5,0.3-0.7c0.2-0.2,0.5-0.3,0.8-0.3
			c0.3,0,0.6,0.1,0.8,0.3c0.2,0.2,0.3,0.4,0.3,0.7c0,0.3-0.1,0.6-0.3,0.8c-0.2,0.2-0.5,0.3-0.8,0.3C20.9,24.6,20.7,24.5,20.5,24.3z
			 M20.5,27H22v10.9h-1.5V27z"/>
		<path fill="#164194" d="M31.8,37.2c-0.3,0.2-0.6,0.4-1,0.6c-0.4,0.1-0.8,0.2-1.3,0.2c-1,0-1.8-0.3-2.4-0.8
			c-0.6-0.6-0.8-1.3-0.8-2.3v-6.6h-1.9V27h1.9v-2.4h1.5V27h3.3v1.2h-3.3v6.5c0,0.6,0.2,1.1,0.5,1.5c0.3,0.3,0.8,0.5,1.4,0.5
			c0.3,0,0.6,0,0.9-0.1c0.3-0.1,0.5-0.2,0.7-0.4L31.8,37.2z"/>
		<path fill="#164194" d="M35.7,37.3c-0.8-0.5-1.5-1.1-2-2c-0.5-0.8-0.7-1.8-0.7-2.9c0-1.1,0.2-2,0.7-2.9c0.5-0.8,1.1-1.5,2-2
			c0.8-0.5,1.8-0.7,2.8-0.7s2,0.2,2.8,0.7c0.8,0.5,1.5,1.1,2,2c0.5,0.8,0.7,1.8,0.7,2.9c0,1.1-0.2,2-0.7,2.9c-0.5,0.8-1.1,1.5-2,2
			c-0.8,0.5-1.8,0.7-2.8,0.7S36.5,37.8,35.7,37.3z M40.6,36.2c0.6-0.4,1.1-0.9,1.4-1.5c0.3-0.6,0.5-1.4,0.5-2.2s-0.2-1.6-0.5-2.2
			c-0.3-0.6-0.8-1.1-1.4-1.5c-0.6-0.4-1.3-0.5-2.1-0.5s-1.5,0.2-2.1,0.5c-0.6,0.4-1.1,0.9-1.4,1.5c-0.4,0.6-0.5,1.4-0.5,2.2
			s0.2,1.6,0.5,2.2c0.4,0.6,0.8,1.1,1.4,1.5c0.6,0.4,1.3,0.5,2.1,0.5S40,36.5,40.6,36.2z"/>
		<path fill="#164194" d="M67.1,32.9H58c0.1,1.1,0.5,2,1.3,2.7c0.8,0.7,1.8,1,3,1c0.7,0,1.3-0.1,1.9-0.4c0.6-0.2,1.1-0.6,1.5-1.1
			l0.8,1c-0.5,0.6-1.1,1-1.8,1.3c-0.7,0.3-1.5,0.5-2.4,0.5c-1.1,0-2.1-0.2-3-0.7c-0.9-0.5-1.5-1.1-2-2c-0.5-0.8-0.7-1.8-0.7-2.9
			c0-1.1,0.2-2,0.7-2.9c0.5-0.8,1.1-1.5,1.9-2c0.8-0.5,1.7-0.7,2.7-0.7c1,0,1.9,0.2,2.7,0.7c0.8,0.5,1.4,1.1,1.9,2
			c0.5,0.8,0.7,1.8,0.7,2.9L67.1,32.9z M59.2,29.2c-0.7,0.7-1.1,1.5-1.2,2.6h7.7c-0.1-1.1-0.5-1.9-1.2-2.6c-0.7-0.7-1.6-1-2.7-1
			C60.8,28.2,59.9,28.5,59.2,29.2z"/>
		<path fill="#164194" d="M78.9,28.1c0.8,0.8,1.2,1.9,1.2,3.5v6.3h-1.5v-6.2c0-1.1-0.3-2-0.8-2.6c-0.6-0.6-1.4-0.9-2.4-0.9
			c-1.2,0-2.1,0.3-2.8,1c-0.7,0.7-1,1.7-1,2.9v5.7h-1.5V27h1.4v2c0.4-0.7,1-1.2,1.7-1.5c0.7-0.4,1.5-0.5,2.5-0.5
			C77,26.9,78.1,27.3,78.9,28.1z"/>
		<path fill="#164194" d="M92.9,28.1c0.8,0.8,1.2,1.9,1.2,3.5v6.3h-1.5v-6.2c0-1.1-0.3-2-0.8-2.6c-0.6-0.6-1.4-0.9-2.4-0.9
			c-1.2,0-2.1,0.3-2.8,1c-0.7,0.7-1,1.7-1,2.9v5.7h-1.5V27h1.4v2c0.4-0.7,1-1.2,1.7-1.5c0.7-0.4,1.5-0.5,2.5-0.5
			C91,26.9,92.1,27.3,92.9,28.1z"/>
		<path fill="#164194" d="M107.6,32.9h-9.1c0.1,1.1,0.5,2,1.3,2.7c0.8,0.7,1.8,1,3,1c0.7,0,1.3-0.1,1.9-0.4c0.6-0.2,1.1-0.6,1.5-1.1
			l0.8,1c-0.5,0.6-1.1,1-1.8,1.3c-0.7,0.3-1.5,0.5-2.4,0.5c-1.1,0-2.1-0.2-3-0.7c-0.9-0.5-1.5-1.1-2-2c-0.5-0.8-0.7-1.8-0.7-2.9
			c0-1.1,0.2-2,0.7-2.9c0.5-0.8,1.1-1.5,1.9-2c0.8-0.5,1.7-0.7,2.7-0.7c1,0,1.9,0.2,2.7,0.7c0.8,0.5,1.4,1.1,1.9,2
			c0.5,0.8,0.7,1.8,0.7,2.9L107.6,32.9z M99.7,29.2c-0.7,0.7-1.1,1.5-1.2,2.6h7.7c-0.1-1.1-0.5-1.9-1.2-2.6c-0.7-0.7-1.6-1-2.7-1
			C101.3,28.2,100.4,28.5,99.7,29.2z"/>
	</g>
	<g>
		<path fill="#164194" d="M49.4,38.2l-0.6,1.2c0.1-0.1,0.2-0.3,0.2-0.5L49.4,38.2z"/>
		<path fill="#164194" d="M54.4,27l-4.1,9.2L46.2,27h-1.5l4.9,10.9l-0.2,0.4l-0.3,0.7c-0.1,0.2-0.2,0.3-0.2,0.5l-1.2,2.5l0,0.1
			c0,0,1.5,0,1.6,0l1.2-2.7c0-0.1,0-0.1,0.1-0.1L55.8,27H54.4z"/>
	</g>
</g>
</svg>
